<svg id="Layer_1" data-name="Layer 1" xmlns="http://www.w3.org/2000/svg" viewBox="0 0 468.4 357"><defs><style>.cls-1{fill:#36462d;}.cls-2{fill:#b3c451;}.cls-3{fill:#fdf6c5;}.cls-4{fill:#efd885;}.cls-5{fill:#9a601f;}.cls-6{fill:#af6c23;}</style></defs><path class="cls-1" d="M489.11,208.27c-10.37,111.13-82,146.91-125,168.13-45.23,22.29-130.1,31.58-145,33.33s-44.6,12.5-97.88,23S40.09,403,30.8,380.74Z" transform="translate(-21.8 -77.5)"/><path class="cls-2" d="M490.15,191.87v.06q-.3,8.43-1,16.31v0c-9.56,58.52-79.34,95.11-102.69,106.79-26,13-81.79,40.88-107.81,47.09S202.17,387,159,398.69C120.86,409,64,423.74,30.8,380.74,7.88,351,33.46,312.8,55,294c34.69-30.35,68.76-83.63,79.93-97.26s38.63-63.09,141.87-105.94c98.5-40.89,206.3,18.59,213.11,96.64.09,1.06.17,2.11.22,3.16C490.11,191,490.14,191.44,490.15,191.87Z" transform="translate(-21.8 -77.5)"/><path class="cls-3" d="M470,198.9c-1.46,58.42-70.76,94.8-93,105.93-23.34,11.66-73.34,36.67-96.67,42.21s-68.54,22.34-107.24,32.79c-33,8.92-82.22,25.67-111.77-11.73-1.11-1.39-2.17-2.85-3.22-4.38-18.87-27.9,8-62.15,27.23-79C116.42,257.48,149,209,159,196.73s26.75-55.24,119.61-93c77.4-31.51,185,16.66,191.11,86.67A72,72,0,0,1,470,198.9Z" transform="translate(-21.8 -77.5)"/><path d="M490.2,190.54c0,.44,0,.88-.05,1.33,0-.43,0-.84-.06-1.28Z" transform="translate(-21.8 -77.5)"/><path class="cls-4" d="M418.73,220.13c-11.25,26.79-43.79,41.29-75.06,50.79s-67.83,20-96.83,20.38h0c-18.14.22-33.29-3.55-42.35-14C181,250.12,222.23,191.63,244,178q1.37-2.28,2.89-4.46c12.8-18.37,33.12-63.16,108.34-63.16,12.35,0,47,15.88,54.3,43.41C424.54,181.89,425.78,203.41,418.73,220.13Z" transform="translate(-21.8 -77.5)"/><path class="cls-5" d="M398.45,228.52v0c-13,13.09-30.12,19.43-39.08,23.54-11.67,5.37-27.63,8.38-43.16,10.5-19.11,2.61-37.59,3.89-46.74,6.63-16.59,5-34.89-2.47-34.89-2.47-17.91-18.44-4.8-42,.77-66.45.23-1,.45-2,.65-3l7.92-19.06c.93-1.57,1.93-3.11,3-4.61,12.8-18.37,33.12-63.16,108.34-63.16,12.35,0,47,15.88,54.3,43.42C422.14,191.16,412.84,214,398.45,228.52Z" transform="translate(-21.8 -77.5)"/><path class="cls-6" d="M408.51,177c-4.67,14.14-31.38,36.76-41.3,39.64s-48.33,2.49-78.07,8.27-48.79,5.1-53.69-11.56c-1.28-4.38-1-9.56-.11-14.61.23-1,.45-2.05.65-3.06l7.92-19.06c.93-1.57,1.93-3.1,3-4.61,12.8-18.36,33.12-63.15,108.34-63.15,12.35,0,47,15.88,54.3,43.41A42.65,42.65,0,0,1,408.51,177Z" transform="translate(-21.8 -77.5)"/></svg>