<svg id="Layer_1" data-name="Layer 1" xmlns="http://www.w3.org/2000/svg" viewBox="0 0 37 37"><defs><style>.cls-1{fill:#151515;}</style></defs><path class="cls-1" d="M36.08,10.64H27.55a.92.92,0,0,1-.91-.92V.92A.92.92,0,0,1,27.55,0h8.53A.92.92,0,0,1,37,.92v8.8A.92.92,0,0,1,36.08,10.64ZM28.47,8.81h6.7v-7h-6.7Z"/><path class="cls-1" d="M22.77,10.64H14.23a.92.92,0,0,1-.91-.92V.92A.92.92,0,0,1,14.23,0h8.54a.92.92,0,0,1,.91.92v8.8A.92.92,0,0,1,22.77,10.64ZM15.15,8.81h6.7v-7h-6.7Z"/><path class="cls-1" d="M9.45,10.64H.92A.92.92,0,0,1,0,9.72V.92A.92.92,0,0,1,.92,0H9.45a.92.92,0,0,1,.91.92v8.8A.92.92,0,0,1,9.45,10.64ZM1.83,8.81h6.7v-7H1.83Z"/><path class="cls-1" d="M36.08,23.82H27.55a.92.92,0,0,1-.91-.92V14.1a.92.92,0,0,1,.91-.92h8.53a.92.92,0,0,1,.92.92v8.8A.92.92,0,0,1,36.08,23.82ZM28.47,22h6.7V15h-6.7Z"/><path class="cls-1" d="M22.77,23.82H14.23a.92.92,0,0,1-.91-.92V14.1a.92.92,0,0,1,.91-.92h8.54a.92.92,0,0,1,.91.92v8.8A.92.92,0,0,1,22.77,23.82ZM15.15,22h6.7V15h-6.7Z"/><path class="cls-1" d="M9.45,23.82H.92A.92.92,0,0,1,0,22.9V14.1a.92.92,0,0,1,.92-.92H9.45a.92.92,0,0,1,.91.92v8.8A.92.92,0,0,1,9.45,23.82ZM1.83,22h6.7V15H1.83Z"/><path class="cls-1" d="M36.08,37H27.55a.92.92,0,0,1-.91-.92v-8.8a.92.92,0,0,1,.91-.92h8.53a.92.92,0,0,1,.92.92v8.8A.92.92,0,0,1,36.08,37Zm-7.61-1.83h6.7v-7h-6.7Z"/><path class="cls-1" d="M22.77,37H14.23a.92.92,0,0,1-.91-.92v-8.8a.92.92,0,0,1,.91-.92h8.54a.92.92,0,0,1,.91.92v8.8A.92.92,0,0,1,22.77,37Zm-7.62-1.83h6.7v-7h-6.7Z"/><path class="cls-1" d="M9.45,37H.92A.92.92,0,0,1,0,36.08v-8.8a.92.92,0,0,1,.92-.92H9.45a.92.92,0,0,1,.91.92v8.8A.92.92,0,0,1,9.45,37ZM1.83,35.17h6.7v-7H1.83Z"/></svg>