<svg id="Layer_1" data-name="Layer 1" xmlns="http://www.w3.org/2000/svg" viewBox="0 0 400 400"><defs><style>.cls-1{fill:#9a601f;}.cls-2{fill:#af6c23;}</style></defs><path class="cls-1" d="M290.53,182.54h0c-8.59,8.66-19.91,12.85-25.82,15.56-7.72,3.55-18.27,5.54-28.52,7-12.64,1.72-24.83,2.57-30.88,4.38-11,3.27-23.07-1.63-23.07-1.63-11.84-12.19-3.17-27.78.52-43.91.14-.67.3-1.34.44-2l5.23-12.59c.62-1,1.27-2.05,2-3.06,8.47-12.13,21.9-41.72,71.6-41.72,8.15,0,31.06,10.49,35.88,28.67C306.18,157.84,300,172.94,290.53,182.54Z"/><path class="cls-2" d="M297.17,148.48c-3.09,9.35-20.74,24.3-27.29,26.2s-31.95,1.65-51.58,5.46-32.25,3.37-35.48-7.64a21.36,21.36,0,0,1-.08-9.66c.14-.67.3-1.35.44-2l5.23-12.59c.62-1,1.27-2,2-3.06,8.47-12.14,21.9-41.73,71.6-41.73,8.15,0,31.06,10.5,35.88,28.68A28.17,28.17,0,0,1,297.17,148.48Z"/></svg>