<svg id="Layer_1" data-name="Layer 1" xmlns="http://www.w3.org/2000/svg" viewBox="0 0 400 400"><defs><style>.cls-1{fill:#36462d;}.cls-2{fill:#797f3d;}</style></defs><path class="cls-1" d="M354,168.47c-6.86,73.44-54.18,97.08-82.6,111.1-29.89,14.74-86,20.87-95.79,22s-29.48,8.27-64.68,15.23-53.62-19.65-59.77-34.39Z"/><path class="cls-2" d="M354.72,157.62v0c-.14,3.71-.35,7.3-.69,10.77v0c-6.33,38.68-52.42,62.85-67.85,70.57-17.19,8.6-54,27-71.24,31.11s-50.51,16.44-79,24.16c-25.23,6.82-62.83,16.56-84.74-11.86-15.15-19.65,1.76-44.9,16-57.32,22.93-20.05,45.44-55.25,52.82-64.27s25.52-41.69,93.74-70C278.8,63.8,350,103.1,354.52,154.69c.06.69.12,1.39.14,2.08A6.41,6.41,0,0,1,354.72,157.62Z"/><path d="M354.76,156.75c0,.3,0,.6,0,.87,0-.27,0-.55,0-.85Z"/></svg>