<svg id="Layer_1" data-name="Layer 1" xmlns="http://www.w3.org/2000/svg" viewBox="0 0 400 400"><defs><style>.cls-1{fill:#b3c451;}.cls-2{fill:#fdf6c5;}.cls-3{fill:#efd885;}.cls-4{fill:#af6c23;opacity:0.43;}</style></defs><path d="M299.58,174.06c0,.29,0,.59,0,.87,0-.28,0-.56,0-.85Z"/><path class="cls-1" d="M354.05,168.47c-6.86,73.44-54.18,97.08-82.6,111.1-29.89,14.74-86,20.87-95.79,22s-29.48,8.27-64.68,15.23-53.62-19.65-59.77-34.39Z"/><path class="cls-1" d="M354.74,157.62v0c-.14,3.71-.36,7.3-.69,10.77v0c-6.33,38.68-52.42,62.85-67.85,70.57-17.19,8.6-54,27-71.24,31.11s-50.51,16.44-79,24.16c-25.23,6.82-62.83,16.56-84.74-11.86-15.16-19.65,1.76-44.9,16-57.32,22.93-20.05,45.44-55.25,52.82-64.27s25.52-41.69,93.74-70c65.09-27,136.33,12.27,140.81,63.86.06.69.12,1.39.14,2.08A6.41,6.41,0,0,1,354.74,157.62Z"/><path class="cls-2" d="M341.43,162.27c-1,38.61-46.76,62.65-61.48,70-15.43,7.7-48.45,24.24-63.88,27.89s-45.29,14.75-70.86,21.65c-21.81,5.89-54.32,17-73.85-7.75-.74-.91-1.43-1.88-2.13-2.9-12.47-18.44,5.26-41.07,18-52.21,20.57-18,42.11-50.06,48.73-58.13s17.67-36.51,79-61.46c51.15-20.83,122.25,11,126.3,57.27A51.09,51.09,0,0,1,341.43,162.27Z"/><path class="cls-3" d="M307.56,176.31C300.12,194,278.63,203.6,258,209.86s-44.82,13.23-64,13.47h0c-12,.14-22-2.34-28-9.26-15.49-17.95,11.74-56.58,26.12-65.57.59-1,1.23-2,1.9-2.95,8.47-12.14,21.9-41.73,71.6-41.73,8.15,0,31,10.49,35.87,28.68C311.39,151,312.2,165.26,307.56,176.31Z"/><path class="cls-4" d="M291.37,149.24C287.5,139,274,124.09,257.56,123.93c-10.63-.1-21.82,0-33.72,9.92-25.66,21.39-44,44.57-37.68,61.48s28.85,17.6,60.11,5.84S297.73,166.16,291.37,149.24Z"/></svg>